HIERARCHY
ROOT Hips
{
	OFFSET 0.00000 0.00000 0.00000
	CHANNELS 6 Xposition Yposition Zposition Zrotation Yrotation Xrotation 
	JOINT LHipJoint
	{
		OFFSET 0 0 0
		CHANNELS 3 Zrotation Yrotation Xrotation
		JOINT LeftHip
		{
			OFFSET 1.53139 -1.83434 0.76626
			CHANNELS 3 Zrotation Yrotation Xrotation
			JOINT LeftKnee
			{
				OFFSET 2.56112 -7.03663 0.00000
				CHANNELS 3 Zrotation Yrotation Xrotation
				JOINT LeftAnkle
				{
					OFFSET 2.59983 -7.14299 0.00000
					CHANNELS 3 Zrotation Yrotation Xrotation
					JOINT LeftToe
					{
						OFFSET 0.13742 -0.37757 2.00054
						CHANNELS 3 Zrotation Yrotation Xrotation
						End Site
						{
							OFFSET 0.00000 -0.00000 1.02897
						}
					}
				}
			}
		}
	}
	JOINT RHipJoint
	{
		OFFSET 0 0 0
		CHANNELS 3 Zrotation Yrotation Xrotation
		JOINT RightHip
		{
			OFFSET -1.40122 -1.83435 0.76627
			CHANNELS 3 Zrotation Yrotation Xrotation
			JOINT RightKnee
			{
				OFFSET -2.54052 -6.98003 0.00000
				CHANNELS 3 Zrotation Yrotation Xrotation
				JOINT RightAnkle
				{
					OFFSET -2.63179 -7.23079 0.00000
					CHANNELS 3 Zrotation Yrotation Xrotation
					JOINT RightToe
					{
						OFFSET -0.24131 -0.66299 2.03908
						CHANNELS 3 Zrotation Yrotation Xrotation
						End Site
						{
							OFFSET -0.00000 -0.00000 1.07391
						}
					}
				}
			}
		}
	}
	JOINT lowerback
	{
		OFFSET 0 0 0
		CHANNELS 3 Zrotation Yrotation Xrotation
		JOINT Chest
		{
			OFFSET 0.01174 2.10302 -0.29778
			CHANNELS 3 Zrotation Yrotation Xrotation
			JOINT Chest2
			{
				OFFSET 0.00772 2.13227 -0.01247
				CHANNELS 3 Zrotation Yrotation Xrotation
				JOINT lowerneck
				{
					OFFSET 0 0 0
					CHANNELS 3 Zrotation Yrotation Xrotation
					JOINT Neck
					{
						OFFSET -0.09219 1.60848 0.31481
						CHANNELS 3 Zrotation Yrotation Xrotation
						JOINT Head
						{
							OFFSET 0.13974 1.65456 -0.31134
							CHANNELS 3 Zrotation Yrotation Xrotation
							End Site
							{
								OFFSET 0.04742 1.69515 -0.14578
							}
						}
					}
				}
				JOINT LeftCollar
				{
					OFFSET 0 0 0
					CHANNELS 3 Zrotation Yrotation Xrotation
					JOINT LeftShoulder
					{
						OFFSET 3.24909 1.02882 -0.23993
CHANNELS 3 Zrotation Xrotation Yrotation
						JOINT LeftElbow
						{
OFFSET 0 -5.329550 -0.000000
CHANNELS 3 Zrotation Xrotation Yrotation
							JOINT LeftWrist
							{
OFFSET 0 -3.692320 -0.000000
CHANNELS 3 Zrotation Xrotation Yrotation
								JOINT lhand
								{
									OFFSET 0 0 0
CHANNELS 3 Zrotation Xrotation Yrotation
									JOINT LFingers
									{
OFFSET 0 -0.536600 -0.000000
CHANNELS 3 Zrotation Xrotation Yrotation
										End Site
										{
OFFSET 0 -0.432620 -0.000000
										}
									}
								}
								JOINT LThumb
								{
OFFSET 0 0.000000 0.000000
CHANNELS 3 Zrotation Xrotation Yrotation
									End Site
									{
OFFSET 0 -0.439220 0.439220
									}
								}
							}
						}
					}
				}
				JOINT RightCollar
				{
					OFFSET 0 0 0
					CHANNELS 3 Zrotation Yrotation Xrotation
					JOINT RightShoulder
					{
						OFFSET -3.21387 0.93002 -0.34594
CHANNELS 3 Zrotation Xrotation Yrotation
						JOINT RightElbow
						{
OFFSET 0 -5.234310 0.000000
CHANNELS 3 Zrotation Xrotation Yrotation
							JOINT RightWrist
							{
OFFSET 0 -3.553010 -0.000000
CHANNELS 3 Zrotation Xrotation Yrotation
								JOINT rhand
								{
									OFFSET 0 0 0
CHANNELS 3 Zrotation Xrotation Yrotation
									JOINT RFingers
									{
OFFSET 0 -0.772520 -0.000000
CHANNELS 3 Zrotation Xrotation Yrotation
										End Site
										{
OFFSET 0 -0.622830 -0.000000
										}
									}
								}
								JOINT RThumb
								{
OFFSET 0 0.000000 0.000000
CHANNELS 3 Zrotation Xrotation Yrotation
									End Site
									{
OFFSET 0 -0.632340 0.632340
									}
								}
							}
						}
					}
				}
			}
		}
	}
}
MOTION
Frames: 7
Frame Time: 0.008333333333333333
5.799400 17.839700 -8.452200 2.562000 -40.514100 -2.347000 0.000000 0.000000 0.000000 -18.735900 -1.022900 -9.773100 3.939700 12.079700 36.014600 0.432100 -3.429400 -11.715400 0.664700 -5.214200 -14.520600 0.000000 0.000000 0.000000 24.414400 -0.813600 -6.581500 -2.184600 -9.240400 26.550200 -0.910700 8.385500 -17.149100 -0.354500 -3.825000 10.584800 1.156200 0.310500 8.704800 0.493000 0.558100 -0.541800 -0.210800 0.247700 -5.446100 -13.527000 -5.700500 -21.427900 8.502800 -6.254800 28.485900 4.556700 -3.109600 14.041700 -0.000000 -0.000000 0.000000 1.008500 2.523300 -25.233600 14.441000 -23.361600 3.000800 19.558600 12.287900 -25.444100 0.000000 0.000000 0.000000 -7.125000 0.000000 0.000000 -11.100200 56.424000 3.136300 -0.000000 -0.000000 0.000000 -0.135700 8.608300 10.416900 -17.105100 -26.996100 -4.134900 -12.637500 3.817800 -7.825700 0.000000 0.000000 0.000000 7.125000 0.000000 -0.000000 10.299300 22.005400 5.781600
5.783774 17.836745 -8.453833 2.460393 -40.679497 -2.508395 0.000000 0.000000 0.000000 -18.494538 -0.973221 -10.398194 4.202582 12.424876 37.252502 0.415258 -3.356324 -11.484376 0.803737 -5.718205 -15.969956 0.000000 0.000000 0.000000 24.527433 -1.015287 -6.188944 -2.138841 -9.149449 26.264071 -0.897454 8.560083 -17.049763 -0.355535 -3.830804 10.601158 1.182905 0.387013 9.046602 0.559616 0.670139 -0.439426 -0.173519 0.302436 -5.530999 -12.987321 -5.680834 -21.943834 7.614889 -6.091575 29.081683 4.141264 -3.101022 14.332675 0.000000 0.000000 0.000000 0.997142 2.522353 -25.418939 14.552809 -23.519500 3.045273 19.534681 12.034926 -25.385140 0.000000 0.000000 0.000000 -7.125000 0.000000 0.000000 -11.096776 56.359637 3.117955 0.000000 0.000000 0.000000 -0.276110 8.571192 10.279122 -16.971398 -26.820056 -4.074466 -12.518332 4.207370 -8.262704 0.000000 0.000000 0.000000 7.125000 0.000000 0.000000 10.362963 21.569856 5.922908
5.765745 17.836524 -8.449449 2.188274 -41.018262 -2.552428 0.000000 0.000000 0.000000 -18.115039 -0.761909 -11.076667 4.452868 12.739390 38.401142 0.397863 -3.739230 -11.221646 0.879224 -5.977485 -16.719212 0.000000 0.000000 0.000000 24.810190 -1.038232 -5.659529 -2.079620 -9.029899 25.889008 -0.884413 8.656325 -16.943669 -0.347257 -3.786245 10.476116 1.395073 0.531081 9.259294 0.577998 0.887223 -0.317426 -0.305093 0.403549 -5.517881 -13.184906 -5.704571 -21.649819 7.982926 -6.223554 29.059669 4.305292 -3.137016 14.300348 0.000000 0.000000 0.000000 1.078772 2.531602 -25.489306 14.625957 -23.622477 3.074516 19.681135 12.102084 -25.317526 0.000000 0.000000 0.000000 -7.125000 0.000000 0.000000 -10.910748 56.322003 3.054753 0.000000 0.000000 0.000000 -0.222548 8.558135 10.190997 -16.915839 -26.746678 -4.049368 -13.145987 4.108627 -7.802680 0.000000 0.000000 0.000000 7.125000 0.000000 0.000000 9.933089 22.010214 5.569051
5.749203 17.838104 -8.441743 1.896344 -41.281954 -2.648134 0.000000 0.000000 0.000000 -17.746563 -0.682819 -11.653221 4.669459 13.001339 39.373864 0.356996 -4.279253 -10.631504 0.827165 -5.802396 -16.212173 0.000000 0.000000 0.000000 25.088813 -1.102168 -5.046530 -2.020087 -8.907659 25.506975 -0.869359 8.699079 -16.812724 -0.360650 -3.856690 10.673866 1.682543 0.643589 9.597797 0.559909 1.072635 -0.224442 -0.515232 0.485575 -5.603038 -13.447158 -5.682183 -21.212943 8.530415 -6.332531 28.849884 4.554557 -3.145648 14.162110 0.000000 0.000000 0.000000 1.261708 2.634940 -25.777780 14.760695 -23.811655 3.128660 19.829318 12.084794 -25.493791 0.000000 0.000000 0.000000 -7.125000 0.000000 0.000000 -10.840441 56.530522 3.090079 0.000000 0.000000 0.000000 -0.034268 8.539590 9.842254 -16.787854 -26.577212 -3.992017 -13.298188 4.170691 -7.760296 0.000000 0.000000 0.000000 7.125000 0.000000 0.000000 9.825243 22.047361 5.497960
5.731546 17.844629 -8.435246 1.927611 -41.442894 -2.791380 0.000000 0.000000 0.000000 -17.668123 -0.757211 -12.345953 4.829739 13.189364 40.081626 0.299037 -4.739590 -9.781915 0.876336 -5.963557 -16.680149 0.000000 0.000000 0.000000 25.073127 -1.180178 -4.772740 -2.003457 -8.873248 25.399681 -0.863714 8.901269 -16.788568 -0.396256 -4.041576 11.193737 1.686025 0.693507 9.786469 0.554538 1.142264 -0.184850 -0.535056 0.519002 -5.666321 -13.416872 -5.633713 -21.054302 8.366931 -6.248064 28.931638 4.500946 -3.133801 14.143778 0.000000 0.000000 0.000000 1.284226 2.752159 -25.938382 14.829357 -23.907892 3.156474 19.606496 11.904791 -25.817499 0.000000 0.000000 0.000000 -7.125000 0.000000 0.000000 -11.233220 56.809445 3.279606 0.000000 0.000000 0.000000 -0.018984 8.518764 9.704768 -16.672071 -26.423439 -3.940312 -13.263126 4.381405 -7.795358 0.000000 0.000000 0.000000 7.125000 0.000000 0.000000 9.848922 22.013189 5.519411
5.717935 17.830854 -8.431508 2.049750 -41.514576 -2.988530 0.000000 0.000000 0.000000 -17.651422 -0.856699 -13.075493 4.932506 13.307334 40.530116 0.219477 -4.984158 -8.509576 1.092466 -6.642362 -18.659976 0.000000 0.000000 0.000000 25.010573 -1.177701 -4.564938 -2.002890 -8.872089 25.396038 -0.873582 8.880086 -16.875640 -0.391961 -4.019858 11.132550 1.592379 0.701132 10.045359 0.542701 1.145963 -0.169062 -0.499163 0.522022 -5.797205 -13.311906 -5.523710 -21.044833 8.202647 -6.100974 29.304717 4.456183 -3.091368 14.272903 0.000000 0.000000 0.000000 1.275566 2.918510 -26.059709 14.938034 -24.059700 3.200657 19.826756 11.813785 -26.187664 0.000000 0.000000 0.000000 -7.125000 0.000000 0.000000 -11.186736 57.228243 3.379496 0.000000 0.000000 0.000000 -0.097302 8.605132 9.909915 -16.658224 -26.405010 -3.934176 -13.292611 4.196840 -7.538193 0.000000 0.000000 0.000000 7.125000 0.000000 0.000000 9.840046 22.272163 5.455329
5.696914 17.833519 -8.412515 1.777266 -41.793882 -2.982998 0.000000 0.000000 0.000000 -17.378552 -0.929599 -13.534190 4.993774 13.376833 40.795946 0.183700 -5.131441 -7.903611 1.156730 -6.828175 -19.207314 0.000000 0.000000 0.000000 25.211726 -1.405831 -4.268328 -1.977258 -8.818658 25.229554 -0.866979 9.152675 -16.855994 -0.368193 -3.897439 10.788152 1.739630 0.749203 10.134188 0.695512 1.235155 -0.063035 -0.435943 0.564314 -5.734383 -13.386334 -5.417123 -21.069457 8.044739 -5.886719 29.689873 4.457945 -3.039631 14.415444 0.000000 0.000000 0.000000 1.100692 2.966213 -25.805000 14.979714 -24.117764 3.217642 19.789409 11.805105 -26.059026 0.000000 0.000000 0.000000 -7.125000 0.000000 0.000000 -11.161094 57.090999 3.334473 0.000000 0.000000 0.000000 -0.270040 8.472792 9.720174 -16.488254 -26.178265 -3.858895 -12.858099 4.488747 -7.836266 0.000000 0.000000 0.000000 7.125000 0.000000 0.000000 10.139535 21.986781 5.693407
